PathFileType	4	(X/Y/Z)	C:\Users\dbl\Desktop\20210112\20210112\bx_n_0_503.trc
DataRate	CameraRate	NumFrames	NumMarkers	Units	OrigDataRate	OrigDataStartFrame	OrigNumFrames
50.00	50.00	       8	43	mm	50.00	1	       333
Frame#	Time	Top.Head			R.Acromium			L.Acromium			Sternum			R.ASIS			L.ASIS			V.Sacral			R.Thigh.Upper			R.Thigh.Front			R.Thigh.Rear			R.Knee.Lat			R.Knee.Med			R.Shank.Upper			R.Shank.Front			R.Shank.Rear			R.Ankle.Lat			R.Midfoot.Lat			R.Toe.Lat			R.Toe.Tip			R.Toe.Med			R.Ankle.Med			R.Midfoot.Sup			R.Heel			L.Thigh.Upper			L.Thigh.Front			L.Thigh.Rear			L.Knee.Lat			L.Knee.Med			L.Shank.Upper			L.Shank.Front			L.Shank.Rear			L.Ankle.Lat			L.Midfoot.Lat			L.Toe.Lat			L.Toe.Tip			L.Toe.Med			L.Ankle.Med			L.Midfoot.Sup			L.Heel			origin1 front left			origin2 front right			origin 3 back right			origin 4 back leftt			
		X1	Y1	Z1	X2	Y2	Z2	X3	Y3	Z3	X4	Y4	Z4	X5	Y5	Z5	X6	Y6	Z6	X7	Y7	Z7	X8	Y8	Z8	X9	Y9	Z9	X10	Y10	Z10	X11	Y11	Z11	X12	Y12	Z12	X13	Y13	Z13	X14	Y14	Z14	X15	Y15	Z15	X16	Y16	Z16	X17	Y17	Z17	X18	Y18	Z18	X19	Y19	Z19	X20	Y20	Z20	X21	Y21	Z21	X22	Y22	Z22	X23	Y23	Z23	X24	Y24	Z24	X25	Y25	Z25	X26	Y26	Z26	X27	Y27	Z27	X28	Y28	Z28	X29	Y29	Z29	X30	Y30	Z30	X31	Y31	Z31	X32	Y32	Z32	X33	Y33	Z33	X34	Y34	Z34	X35	Y35	Z35	X36	Y36	Z36	X37	Y37	Z37	X38	Y38	Z38	X39	Y39	Z39	X40	Y40	Z40	X41	Y41	Z41	X42	Y42	Z42	X43	Y43	Z43	

1	0.000	-663.10321	114.94033	1847.08423	-669.92963	-75.73861	1533.99194	-704.14337	285.77658	1525.19922	-580.69971	109.72472	1352.01807	-565.90863	-6.47245	1053.85828	-580.84119	241.56789	1064.42896	-773.61346	89.29552	1056.58411	-634.32123	-74.60371	870.42938	-562.64813	-7.44139	800.48462	-660.54895	-64.48721	755.83960	-692.86292	-37.68309	614.52722	-680.19537	72.01312	573.43195	-703.56396	-34.75757	568.52435	-656.29578	11.78151	518.14618	-751.41162	-46.39636	490.63293	-759.50555	-20.03206	207.56673	-649.06470	-68.21162	160.80168	-606.38019	-72.70918	158.12592	-549.15900	-24.76581	164.91922	-600.20215	27.62402	168.18379	-718.51923	69.44177	217.16338	-675.07611	52.07523	159.70439	-793.50616	39.16127	175.84554	-662.96417	284.11108	872.53723	-568.53650	220.21925	791.18311	-673.85321	268.71500	743.08533	-710.80658	251.47673	642.58899	-678.10699	141.68196	575.01550	-711.72162	245.91264	575.98962	-661.84827	203.08572	532.87817	-753.28674	257.61142	503.27332	-764.10547	226.99767	206.09554	-652.80554	292.03375	156.86258	-615.46100	297.82016	158.58798	-552.17719	243.47946	165.98265	-588.61536	207.75317	174.15210	-713.53638	150.38329	216.03018	-675.03308	165.85553	156.84612	-795.08606	179.56726	185.30933	-528.18390	304.18793	146.52794	-517.79626	-73.00499	143.30394	-875.93073	-78.79627	141.25227	-882.56934	296.14951	144.69809	
2	0.020	-663.10986	115.07620	1847.02148	-669.99957	-75.59802	1534.05591	-704.13055	285.81647	1525.11475	-580.72717	109.77508	1351.97632	-565.87396	-6.45846	1053.83813	-580.82452	241.60045	1064.36096	-773.67010	89.34191	1056.63013	-634.37012	-74.49111	870.35541	-562.67444	-7.47932	800.48846	-660.59064	-64.46875	755.87183	-693.03131	-37.65560	614.52405	-680.27728	72.05301	573.46729	-703.61023	-34.70439	568.47845	-656.21405	11.84416	518.15802	-751.46881	-46.41108	490.66739	-759.50513	-20.03333	207.56438	-649.07953	-68.21298	160.88144	-606.41180	-72.66615	158.11174	-549.18207	-24.71177	164.83531	-600.22339	27.56386	168.17056	-718.43695	69.29663	217.21527	-675.07898	52.18605	159.83099	-793.47723	39.03366	175.86987	-662.98761	284.28952	872.64001	-568.57507	220.25500	791.15753	-673.87421	268.71280	743.01666	-710.82581	251.48759	642.52576	-678.45520	141.89536	574.85046	-711.78314	246.05823	576.04565	-661.93707	203.06213	532.93671	-753.31433	257.64014	503.27817	-764.08521	226.96291	206.20612	-652.77673	291.95038	156.85114	-615.46326	297.80560	158.59688	-552.19153	243.52290	166.00497	-588.73993	207.76952	173.97266	-713.51624	150.36687	216.04208	-675.03394	165.85600	156.84515	-795.05731	179.59225	185.24184	-528.19940	304.20990	146.53084	-517.81708	-73.01145	143.29926	-875.92938	-78.78645	141.28767	-882.61023	296.13916	144.68179	
3	0.040	-663.14453	115.19699	1846.99097	-670.06732	-75.49131	1534.10498	-704.13074	285.84665	1525.05981	-580.75781	109.82755	1351.93652	-565.87048	-6.45032	1053.83191	-580.82629	241.62782	1064.30176	-773.71344	89.38659	1056.67065	-634.43695	-74.43733	870.31763	-562.69995	-7.50659	800.49664	-660.62347	-64.46028	755.89111	-693.13818	-37.62806	614.52588	-680.35254	72.08964	573.49969	-703.63782	-34.68579	568.46851	-656.17877	11.92016	518.14722	-751.51520	-46.41016	490.70935	-759.50720	-20.03957	207.56618	-649.09412	-68.20975	160.92947	-606.42334	-72.64335	158.11104	-549.19128	-24.67812	164.77521	-600.25433	27.51397	168.14403	-718.38330	69.20200	217.24919	-675.08673	52.29018	159.97345	-793.46320	38.94655	175.89740	-663.00238	284.40793	872.70557	-568.61591	220.29308	791.15088	-673.89459	268.70544	742.95001	-710.84692	251.50623	642.49219	-678.73108	142.06123	574.79156	-711.84375	246.17645	576.07977	-661.99701	203.05156	532.98749	-753.33362	257.65366	503.27823	-764.08722	226.94354	206.28851	-652.73755	291.89377	156.86911	-615.46332	297.80264	158.59818	-552.19983	243.55629	166.00069	-588.85248	207.77386	173.83517	-713.52264	150.36879	216.02039	-675.03723	165.85970	156.84293	-795.04681	179.61092	185.20717	-528.20721	304.19464	146.52943	-517.84106	-73.01321	143.29108	-875.94354	-78.79082	141.32439	-882.61859	296.14572	144.67882	
4	0.060	-663.23132	115.29584	1847.00537	-670.12500	-75.41923	1534.13916	-704.13617	285.86368	1525.03455	-580.79193	109.88074	1351.90454	-565.89740	-6.44117	1053.82959	-580.84332	241.65073	1064.25439	-773.74121	89.42346	1056.69727	-634.52527	-74.44823	870.33124	-562.72400	-7.52116	800.51068	-660.64844	-64.45618	755.90460	-693.18433	-37.59348	614.52283	-680.40576	72.11555	573.52271	-703.65021	-34.68758	568.49506	-656.18994	11.99978	518.11456	-751.54590	-46.39222	490.75513	-759.51361	-20.05359	207.57607	-649.11017	-68.20006	160.94202	-606.40741	-72.65089	158.12071	-549.18414	-24.66879	164.75322	-600.29236	27.47774	168.10716	-718.37244	69.17862	217.26294	-675.09344	52.36630	160.09505	-793.45734	38.92137	175.91771	-663.00574	284.45840	872.71967	-568.66125	220.33554	791.15881	-673.92773	268.69525	742.89880	-710.88177	251.53905	642.48706	-678.91486	142.15149	574.86469	-711.89520	246.26526	576.07690	-662.02448	203.05522	533.02783	-753.34296	257.65820	503.25177	-764.10846	226.94228	206.31740	-652.69305	291.87207	156.88499	-615.46136	297.81030	158.59380	-552.21375	243.57361	165.96509	-588.90045	207.76834	173.79572	-713.55548	150.38213	215.98590	-675.04333	165.86777	156.83972	-795.06311	179.62425	185.21481	-528.20813	304.13214	146.51730	-517.86200	-72.99930	143.27560	-875.96790	-78.81278	141.35774	-882.59033	296.15195	144.68349	
5	0.080	-663.37891	115.38497	1847.05530	-670.16522	-75.36308	1534.16797	-704.13184	285.87646	1525.02625	-580.82178	109.92392	1351.88171	-565.94043	-6.42013	1053.80981	-580.86157	241.67670	1064.21460	-773.75470	89.45694	1056.70068	-634.62201	-74.48421	870.38116	-562.73785	-7.52230	800.52551	-660.66833	-64.44947	755.92902	-693.20538	-37.55825	614.50708	-680.42938	72.12700	573.53308	-703.66650	-34.66298	568.52435	-656.21930	12.05719	518.08514	-751.56427	-46.36813	490.79614	-759.52228	-20.07321	207.59242	-649.12726	-68.19211	160.93839	-606.37537	-72.67013	158.12215	-549.16669	-24.67179	164.75760	-600.31976	27.47336	168.06891	-718.38843	69.19926	217.26517	-675.08380	52.40298	160.13710	-793.44678	38.94888	175.91875	-663.00000	284.47092	872.68646	-568.70819	220.37190	791.15955	-673.97186	268.69568	742.88074	-710.93768	251.57944	642.49042	-679.03687	142.20015	574.99103	-711.92682	246.32858	576.04407	-662.03589	203.06897	533.05945	-753.35291	257.67062	503.18637	-764.13281	226.95454	206.29811	-652.65649	291.87540	156.85657	-615.45917	297.82269	158.59001	-552.24426	243.57571	165.92041	-588.83838	207.76974	173.86905	-713.57629	150.39090	215.98106	-675.04706	165.87503	156.83955	-795.09985	179.63721	185.25606	-528.21301	304.05661	146.49057	-517.87134	-72.97475	143.26053	-875.98450	-78.83942	141.38367	-882.54950	296.13950	144.68626	
6	0.100	-663.56042	115.49174	1847.11926	-670.18860	-75.31601	1534.19849	-704.11591	285.90863	1525.03088	-580.84045	109.94660	1351.86255	-565.98871	-6.39491	1053.77319	-580.87415	241.70667	1064.17456	-773.75824	89.50262	1056.68689	-634.69794	-74.50074	870.43170	-562.73193	-7.51079	800.53345	-660.68011	-64.44532	755.96588	-693.22607	-37.53039	614.47949	-680.42987	72.12717	573.53381	-703.69556	-34.60187	568.53271	-656.25024	12.08170	518.07599	-751.57794	-46.34880	490.82785	-759.52869	-20.09081	207.60715	-649.13928	-68.19515	160.93242	-606.34552	-72.66608	158.10143	-549.14752	-24.67356	164.75786	-600.32373	27.52592	168.02333	-718.39984	69.21622	217.26344	-675.05206	52.40999	160.08803	-793.43591	38.99845	175.90517	-662.98932	284.47174	872.61658	-568.75171	220.38739	791.13373	-674.00806	268.71237	742.89606	-711.00592	251.61130	642.48694	-679.11047	142.26532	575.06152	-711.93860	246.36371	576.00812	-662.04785	203.09161	533.08014	-753.37427	257.69717	503.11191	-764.15247	226.97067	206.26494	-652.63458	291.88516	156.79814	-615.45905	297.83716	158.58987	-552.27539	243.56844	165.89932	-588.71179	207.78439	173.98746	-713.56549	150.39261	216.00917	-675.03705	165.87019	156.85039	-795.13879	179.65154	185.30962	-528.22876	304.00967	146.45662	-517.87097	-72.95465	143.25137	-875.98334	-78.85190	141.39639	-882.51685	296.11356	144.68384	
7	0.120	-663.72461	115.62498	1847.17810	-670.20380	-75.27625	1534.23511	-704.09467	285.98694	1525.04700	-580.85547	109.95109	1351.85071	-566.02795	-6.38430	1053.73962	-580.87500	241.73515	1064.13037	-773.76276	89.56800	1056.68445	-634.72614	-74.47813	870.45490	-562.71436	-7.49283	800.53333	-660.68140	-64.44476	756.00311	-693.25287	-37.50306	614.44843	-680.41510	72.11994	573.52820	-703.72772	-34.54748	568.53241	-656.28015	12.08069	518.07935	-751.59113	-46.33718	490.84723	-759.53394	-20.10089	207.61690	-649.14063	-68.20319	160.91951	-606.33319	-72.62780	158.05917	-549.13446	-24.67215	164.74788	-600.31189	27.62118	167.96762	-718.39325	69.20895	217.26064	-675.01672	52.39398	159.99631	-793.43597	39.04022	175.88820	-662.97986	284.47198	872.52875	-568.78998	220.38373	791.07904	-674.03485	268.73108	742.91779	-711.08099	251.63457	642.47742	-679.11731	142.35503	575.04156	-711.94214	246.37634	575.98889	-662.06879	203.12120	533.08319	-753.40796	257.73611	503.07947	-764.16669	226.97269	206.23735	-652.62933	291.89313	156.75725	-615.46307	297.85104	158.59251	-552.27637	243.56081	165.91272	-588.64233	207.79457	174.05016	-713.55823	150.39375	216.03899	-675.00690	165.85158	156.87782	-795.16290	179.66081	185.34293	-528.25018	303.99387	146.43028	-517.86823	-72.94302	143.24313	-875.96796	-78.84590	141.38492	-882.49774	296.08749	144.67589	
8	0.140	-663.84137	115.75942	1847.22412	-670.22144	-75.22759	1534.28101	-704.07178	286.11621	1525.06946	-580.88208	109.94979	1351.85657	-566.04132	-6.38169	1053.71619	-580.84979	241.76450	1064.08618	-773.77563	89.65421	1056.72168	-634.71124	-74.42992	870.45563	-562.70618	-7.47344	800.52979	-660.67688	-64.43450	756.03589	-693.27911	-37.47340	614.43243	-680.38995	72.10776	573.51746	-703.75226	-34.53555	568.54370	-656.29871	12.05643	518.08289	-751.60059	-46.32896	490.84888	-759.54230	-20.10473	207.62483	-649.13507	-68.19969	160.89479	-606.34235	-72.58233	158.01204	-549.13257	-24.66931	164.74976	-600.29724	27.69983	167.93298	-718.37646	69.18841	217.25577	-675.00397	52.35908	159.93176	-793.44360	39.05636	175.87209	-662.97864	284.47842	872.45703	-568.81848	220.37631	791.01233	-674.06140	268.74237	742.91705	-711.16223	251.67055	642.47870	-679.06818	142.44086	574.98193	-711.94916	246.38445	575.98389	-662.09808	203.15190	533.07056	-753.44489	257.78168	503.10150	-764.17377	226.95343	206.20772	-652.64661	291.90567	156.75656	-615.46893	297.85922	158.59354	-552.23822	243.55952	165.93648	-588.69537	207.78761	174.01854	-713.58014	150.39117	216.06068	-674.96765	165.83817	156.91476	-795.16132	179.65877	185.33127	-528.26611	303.99091	146.42107	-517.86340	-72.94082	143.24146	-875.94550	-78.82738	141.34955	-882.49609	296.06879	144.66248	
